<svg xmlns="http://www.w3.org/2000/svg" width="204" height="216" viewBox="0 0 204 216" fill="none">
  <path d="M101.995 215.332C158.325 215.332 203.99 167.128 203.99 107.666C203.99 48.2037 158.325 0 101.995 0C45.6647 0 0 48.2037 0 107.666C0 167.128 45.6647 215.332 101.995 215.332Z" fill="#3E73C4"/>
  <path d="M127.634 121.959C127.634 107.666 119.475 102.767 103.155 100.722C91.5025 99.0865 89.1757 95.8229 89.1757 90.1031C89.1757 84.3834 93.0643 80.7093 100.829 80.7093C107.822 80.7093 111.71 83.1587 113.648 89.2889C113.85 89.8817 114.219 90.3949 114.706 90.7594C115.193 91.124 115.773 91.3224 116.37 91.3278H122.585C122.944 91.3379 123.302 91.271 123.635 91.131C123.969 90.9911 124.272 90.781 124.527 90.5136C124.782 90.2462 124.982 89.9269 125.116 89.5753C125.25 89.2237 125.315 88.8469 125.307 88.468V88.0642C124.548 83.629 122.422 79.5828 119.26 76.5541C116.098 73.5254 112.077 71.6838 107.822 71.3154V61.5178C107.822 59.8826 106.655 58.6579 104.717 58.2474H98.8844C97.3353 58.2474 96.1688 59.4721 95.7799 61.5178V70.9117C84.1206 72.5401 76.7451 80.7093 76.7451 90.9241C76.7451 104.396 84.5095 109.705 100.829 111.751C111.71 113.79 115.204 116.246 115.204 122.78C115.204 129.307 109.766 133.802 102.384 133.802C92.2802 133.802 88.7869 129.314 87.6203 123.184C87.2378 121.555 86.0649 120.734 84.8983 120.734H78.2941C77.9357 120.725 77.5792 120.793 77.2462 120.933C76.9132 121.073 76.6106 121.284 76.3568 121.551C76.103 121.818 75.9031 122.137 75.7693 122.488C75.6356 122.839 75.5707 123.216 75.5785 123.594V123.998C77.1276 134.213 83.3493 141.561 96.1688 143.606V153.411C96.1688 155.039 97.3353 156.271 99.2733 156.674H105.106C106.655 156.674 107.822 155.45 108.211 153.411V143.6C119.87 141.561 127.634 132.981 127.634 121.952V121.959Z" fill="white"/>
  <path d="M82.1826 164.844C51.8773 153.404 36.3358 117.874 47.6063 86.429C53.4327 69.2697 66.2523 56.2085 82.1826 50.0782C83.738 49.264 84.5094 48.0393 84.5094 45.9936V40.2739C84.5094 38.6454 83.738 37.4207 82.1826 37.0103C81.7938 37.0103 81.016 37.0103 80.6272 37.414C71.8838 40.2963 63.767 44.9757 56.7439 51.183C49.7208 57.3902 43.9303 65.0026 39.7058 73.5819C35.4812 82.1612 32.906 91.5378 32.1286 101.172C31.3511 110.806 32.3867 120.508 35.1756 129.717C42.1623 152.597 58.8704 170.16 80.6272 177.508C82.1826 178.322 83.738 177.508 84.1205 175.873C84.5094 175.469 84.5094 175.052 84.5094 174.237V168.518C84.5094 167.293 83.3492 165.664 82.1826 164.844ZM123.363 37.4207C121.808 36.5998 120.252 37.4207 119.87 39.0492C119.481 39.4597 119.481 39.8701 119.481 40.6844V46.4041C119.481 48.0393 120.641 49.6677 121.808 50.4887C152.113 61.9282 167.654 97.458 156.384 128.903C150.558 146.063 137.738 159.124 121.808 165.254C120.252 166.068 119.481 167.293 119.481 169.339V175.058C119.481 176.687 120.252 177.912 121.808 178.322C122.197 178.322 122.974 178.322 123.363 177.918C132.106 175.036 140.223 170.357 147.246 164.149C154.269 157.942 160.06 150.33 164.285 141.75C168.509 133.171 171.084 123.794 171.862 114.16C172.639 104.526 171.604 94.8247 168.815 85.6148C161.828 62.332 144.731 44.7689 123.363 37.4207Z" fill="white"/>
</svg>